<?xml version="1.0" encoding="utf-8"?>
<!-- Generator: Adobe Illustrator 16.0.0, SVG Export Plug-In . SVG Version: 6.00 Build 0)  -->
<!DOCTYPE svg PUBLIC "-//W3C//DTD SVG 1.1//EN" "http://www.w3.org/Graphics/SVG/1.1/DTD/svg11.dtd">
<svg version="1.1" id="Layer_1" xmlns="http://www.w3.org/2000/svg" xmlns:xlink="http://www.w3.org/1999/xlink" x="0px" y="0px"
	 width="56.667px" height="59.69px" viewBox="0 0 56.667 59.69" enable-background="new 0 0 56.667 59.69" xml:space="preserve">
<g>
	<path d="M36.429,26.225H20.972c-1.657,0-3,1.343-3,3s1.343,3,3,3h15.457c1.657,0,3-1.343,3-3S38.086,26.225,36.429,26.225z"/>
	<path d="M51.2,1.308h-45c-2.206,0-4,1.794-4,4v10.5c0,1.906,1.342,3.499,3.13,3.898v32.927c0,3.411,2.775,6.187,6.187,6.187h34.367
		c3.411,0,6.187-2.775,6.187-6.187V19.706c1.788-0.399,3.13-1.992,3.13-3.898v-10.5C55.2,3.102,53.406,1.308,51.2,1.308z M8.2,7.308
		h41v6.5h-41V7.308z M45.884,52.819H11.517c-0.103,0-0.187-0.084-0.187-0.187V19.808h34.74v32.825
		C46.07,52.735,45.986,52.819,45.884,52.819z"/>
</g>
</svg>
