<?xml version="1.0" encoding="UTF-8" standalone="no"?>
<svg width="60px" height="60px" viewBox="0 0 60 60" version="1.1" xmlns="http://www.w3.org/2000/svg" xmlns:xlink="http://www.w3.org/1999/xlink" xmlns:sketch="http://www.bohemiancoding.com/sketch/ns">
    <!-- Generator: Sketch 3.0 (7574) - http://www.bohemiancoding.com/sketch -->
    <title>Rectangle 2 + longboxed_logo</title>
    <description>Created with Sketch.</description>
    <defs></defs>
    <g id="Page-1" stroke="none" stroke-width="1" fill="none" fill-rule="evenodd" sketch:type="MSPage">
        <g id="Rectangle-2-+-longboxed_logo" sketch:type="MSLayerGroup">
            <rect id="Rectangle-2" fill="#FFFFFF" sketch:type="MSShapeGroup" x="0" y="0" width="60" height="60"></rect>
            <g id="longboxed_logo" transform="translate(10.000000, 10.000000)" fill="#000000" sketch:type="MSShapeGroup">
                <g id="Group">
                    <path d="M25.7629678,18 L14.2370322,18 C13.0014447,18 12,18.8953333 12,20 C12,21.1046667 13.0014447,22 14.2370322,22 L25.7629678,22 C26.9985553,22 28,21.1046667 28,20 C28,18.8953333 26.9985553,18 25.7629678,18 L25.7629678,18 Z" id="Shape"></path>
                    <path d="M36.9804343,0 L3.01881097,0 C1.35393672,0 0,1.27893309 0,2.8515788 L0,10.3369732 C0,11.6957505 1.01281108,12.8313917 2.36221958,13.1158367 L2.36221958,36.5893205 C2.36221958,39.0210043 4.45651969,41 7.03156544,41 L32.9684346,41 C35.5427256,41 37.6377804,39.0217172 37.6377804,36.5893205 L37.6377804,13.1158367 C38.9871889,12.8313917 40,11.6957505 40,10.3369732 L40,2.8515788 C39.9992453,1.27893309 38.6453086,0 36.9804343,0 L36.9804343,0 Z M5,4 L36,4 L36,9 L5,9 L5,4 L5,4 Z M32.8607945,36 L7.13995394,36 C7.06286701,36 7,35.9414741 7,35.8697101 L7,13 L33,13 L33,35.8704068 C33,35.9414741 32.937133,36 32.8607945,36 L32.8607945,36 Z" id="Shape"></path>
                </g>
            </g>
        </g>
    </g>
</svg>