<?xml version="1.0" encoding="utf-8"?>
<!-- Generator: Adobe Illustrator 16.0.0, SVG Export Plug-In . SVG Version: 6.00 Build 0)  -->
<!DOCTYPE svg PUBLIC "-//W3C//DTD SVG 1.1//EN" "http://www.w3.org/Graphics/SVG/1.1/DTD/svg11.dtd">
<svg version="1.1" id="Layer_1" xmlns="http://www.w3.org/2000/svg" xmlns:xlink="http://www.w3.org/1999/xlink" x="0px" y="0px"
	 width="427.332px" height="59.69px" viewBox="0 0 427.332 59.69" enable-background="new 0 0 427.332 59.69" xml:space="preserve">
<g>
	<path d="M71.808,17.625c0-2.063,1.632-3.696,3.696-3.696s3.696,1.633,3.696,3.696v23.474h13.682c1.872,0,3.36,1.488,3.36,3.361
		c0,1.871-1.488,3.359-3.36,3.359H75.504c-2.064,0-3.696-1.632-3.696-3.695V17.625z"/>
	<path d="M102.91,31.114v-0.096c0-9.553,7.537-17.378,17.906-17.378c10.368,0,17.81,7.729,17.81,17.282v0.096
		c0,9.553-7.537,17.377-17.906,17.377C110.352,48.396,102.91,40.667,102.91,31.114z M130.896,31.114v-0.096
		c0-5.761-4.224-10.561-10.177-10.561c-5.952,0-10.081,4.704-10.081,10.465v0.096c0,5.76,4.225,10.561,10.178,10.561
		C126.769,41.579,130.896,36.875,130.896,31.114z"/>
	<path d="M149.998,17.722c0-2.064,1.632-3.697,3.696-3.697h0.769c1.775,0,2.832,0.865,3.84,2.16l14.258,18.723v-17.33
		c0-2.016,1.632-3.648,3.647-3.648c2.017,0,3.648,1.633,3.648,3.648v26.738c0,2.064-1.632,3.696-3.696,3.696h-0.24
		c-1.775,0-2.832-0.864-3.84-2.16l-14.785-19.394V44.46c0,2.016-1.632,3.648-3.648,3.648s-3.648-1.633-3.648-3.648V17.722z"/>
	<path d="M191.23,31.114v-0.096c0-9.553,7.441-17.378,17.618-17.378c5.088,0,8.448,1.152,11.473,3.265
		c0.72,0.527,1.536,1.536,1.536,2.977c0,2.016-1.632,3.648-3.648,3.648c-1.056,0-1.729-0.385-2.256-0.769
		c-2.017-1.44-4.177-2.304-7.345-2.304c-5.377,0-9.649,4.752-9.649,10.465v0.096c0,6.145,4.225,10.656,10.178,10.656
		c2.688,0,5.088-0.672,6.96-2.016v-4.801h-4.992c-1.776,0-3.216-1.392-3.216-3.168s1.439-3.217,3.216-3.217h8.448
		c2.064,0,3.697,1.633,3.697,3.697v8.16c0,2.16-0.816,3.648-2.593,4.705c-2.736,1.68-6.721,3.359-11.761,3.359
		C198.432,48.396,191.23,41.052,191.23,31.114z"/>
	<path d="M235.15,17.913c0-2.064,1.632-3.696,3.696-3.696h11.905c3.84,0,6.864,1.056,8.785,2.977
		c1.535,1.536,2.304,3.408,2.304,5.712v0.096c0,3.793-2.017,5.905-4.416,7.25c3.888,1.487,6.288,3.744,6.288,8.256v0.096
		c0,6.145-4.992,9.217-12.577,9.217h-12.289c-2.064,0-3.696-1.632-3.696-3.695V17.913z M249.168,27.802
		c3.264,0,5.328-1.056,5.328-3.552v-0.097c0-2.207-1.729-3.456-4.849-3.456h-7.296v7.104H249.168z M251.136,41.339
		c3.265,0,5.232-1.152,5.232-3.648v-0.096c0-2.256-1.68-3.648-5.473-3.648h-8.544v7.393H251.136z"/>
	<path d="M273.117,31.114v-0.096c0-9.553,7.537-17.378,17.906-17.378c10.368,0,17.81,7.729,17.81,17.282v0.096
		c0,9.553-7.537,17.377-17.906,17.377C280.559,48.396,273.117,40.667,273.117,31.114z M301.104,31.114v-0.096
		c0-5.761-4.224-10.561-10.177-10.561c-5.952,0-10.081,4.704-10.081,10.465v0.096c0,5.76,4.225,10.561,10.178,10.561
		C296.976,41.579,301.104,36.875,301.104,31.114z"/>
	<path d="M318.286,41.867l9.072-11.137l-8.544-10.417c-0.576-0.721-1.104-1.68-1.104-2.736c0-2.064,1.536-3.648,3.648-3.648
		c1.584,0,2.496,0.624,3.408,1.824l7.345,9.793l7.297-9.601c1.008-1.296,1.968-2.017,3.6-2.017c1.633,0,3.36,1.297,3.36,3.408
		c0,1.057-0.384,1.92-1.104,2.832l-8.545,10.465l9.024,11.09c0.576,0.72,1.104,1.68,1.104,2.736c0,2.064-1.536,3.648-3.648,3.648
		c-1.584,0-2.496-0.625-3.408-1.824l-7.873-10.321l-7.776,10.129c-1.008,1.296-1.969,2.017-3.601,2.017s-3.36-1.297-3.36-3.408
		C317.182,43.644,317.565,42.779,318.286,41.867z"/>
	<path d="M357.886,44.124V17.913c0-2.064,1.632-3.696,3.696-3.696h18.626c1.824,0,3.312,1.488,3.312,3.312s-1.488,3.265-3.312,3.265
		H365.23v6.816h12.817c1.824,0,3.312,1.488,3.312,3.312s-1.488,3.264-3.312,3.264H365.23v7.057h15.218
		c1.823,0,3.312,1.488,3.312,3.312s-1.488,3.264-3.312,3.264h-18.866C359.518,47.819,357.886,46.188,357.886,44.124z"/>
	<path d="M394.847,17.913c0-2.064,1.632-3.696,3.696-3.696h9.409c10.561,0,17.857,7.249,17.857,16.706v0.096
		c0,9.457-7.297,16.801-17.857,16.801h-9.409c-2.064,0-3.696-1.632-3.696-3.695V17.913z M407.952,41.147
		c6.048,0,10.129-4.08,10.129-10.033v-0.096c0-5.953-4.081-10.129-10.129-10.129h-5.713v20.258H407.952z"/>
</g>
<g>
	<path d="M36.429,26.225H20.972c-1.657,0-3,1.343-3,3s1.343,3,3,3h15.457c1.657,0,3-1.343,3-3S38.086,26.225,36.429,26.225z"/>
	<path d="M51.2,1.308h-45c-2.206,0-4,1.794-4,4v10.5c0,1.906,1.342,3.499,3.13,3.898v32.927c0,3.411,2.775,6.187,6.187,6.187h34.367
		c3.411,0,6.187-2.775,6.187-6.187V19.706c1.788-0.399,3.13-1.992,3.13-3.898v-10.5C55.2,3.102,53.406,1.308,51.2,1.308z M8.2,7.308
		h41v6.5h-41V7.308z M45.884,52.819H11.517c-0.103,0-0.187-0.084-0.187-0.187V19.808h34.74v32.825
		C46.07,52.735,45.986,52.819,45.884,52.819z"/>
</g>
</svg>
